<svg xmlns="http://www.w3.org/2000/svg" xmlns:xlink="http://www.w3.org/1999/xlink" version="1.1" x="0px" y="0px" viewBox="0 0 100 100" enable-background="new 0 0 100 100" xml:space="preserve"><path d="M50,5C25.1,5,5,25.2,5,50c0,24.9,20.1,45,45,45c24.9,0,45-20.1,45-45C95,25.2,74.9,5,50,5L50,5z M50.3,45.7  c-7,0-12.7-5.8-12.7-12.7c0-7,5.7-12.8,12.7-12.8c6.9,0,12.5,5.7,12.5,12.8C62.7,40,57.2,45.7,50.3,45.7L50.3,45.7z M57.8,49.5  c8.9,0,15.1,7.2,15.1,15.2v7.5c0,8.5-8.7,9.8-22.7,9.8c-14.2,0-22.9-1.3-23-9.8v-7.5c0-7.8,6.3-15.2,15.3-15.2H57.8z"></path></svg>