<svg xmlns="http://www.w3.org/2000/svg" xmlns:xlink="http://www.w3.org/1999/xlink" version="1.1" x="0px" y="0px" viewBox="0 0 100 100" enable-background="new 0 0 100 100" xml:space="preserve"><path fill="#000000" d="M81.962,92.781L81.962,92.781c-0.236,0-0.476-0.01-0.716-0.035c-2.38-0.226-4.391-2.077-5.146-2.865  c-4.21-4.391-18.9-22.577-19.522-23.349c-2.196-2.747-3.867-4.853-4.693-5.896c-7.555,3.893-16.645,4.192-24.431,0.737  c-14.253-6.331-20.702-23.081-14.374-37.34C17.617,13.818,27.773,7.219,38.953,7.219c3.96,0,7.819,0.82,11.467,2.44  c14.256,6.33,20.706,23.081,14.376,37.337c-0.557,1.253-1.22,2.473-2.013,3.711c0.852,0.915,2.361,2.65,5.223,5.94  c0.661,0.773,16.047,18.795,19.516,23.743c0.485,0.695,2.052,3.153,1.804,5.695C88.96,89.902,85.796,92.781,81.962,92.781z   M52.462,57.812l0.58,0.737c0.003,0.001,2.078,2.633,5.253,6.603c0.148,0.186,15.25,18.884,19.395,23.207  c0.455,0.473,2.074,2.035,3.768,2.197c2.884,0.276,5.403-1.832,5.674-4.68c0.141-1.425-0.639-3.115-1.413-4.221  c-3.409-4.862-19.221-23.383-19.379-23.569c-3.378-3.883-5.662-6.469-5.747-6.563l-0.574-0.641l0.48-0.715  c0.93-1.37,1.676-2.7,2.285-4.066c5.835-13.145-0.113-28.59-13.258-34.428c-3.364-1.494-6.922-2.252-10.572-2.252  c-10.311,0-19.677,6.087-23.858,15.507c-5.836,13.149,0.109,28.595,13.255,34.434c7.446,3.305,16.181,2.87,23.293-1.094  L52.462,57.812z M39.307,54.67c-1.639,0-3.283-0.21-4.883-0.626C24.082,51.36,17.848,40.76,20.53,30.414  c2.222-8.547,9.932-14.516,18.752-14.516c1.639,0,3.283,0.21,4.885,0.626c5.008,1.301,9.214,4.475,11.835,8.937  c2.625,4.464,3.354,9.683,2.053,14.692C55.837,48.7,48.128,54.67,39.307,54.67z M39.282,18.102c-7.817,0-14.649,5.29-16.618,12.865  c-2.379,9.171,3.145,18.566,12.315,20.946c1.419,0.367,2.876,0.555,4.328,0.555c7.818,0,14.649-5.29,16.614-12.867  c1.155-4.442,0.509-9.065-1.817-13.023c-2.326-3.955-6.051-6.769-10.492-7.921C42.192,18.287,40.736,18.102,39.282,18.102z"></path></svg>